<svg width="19" height="15" viewBox="0 0 19 15" fill="none" xmlns="http://www.w3.org/2000/svg">
<path d="M17 9.00003L17.707 8.29303L18.414 9.00003L17.707 9.70703L17 9.00003ZM3.10565e-06 1.00003C3.12884e-06 0.734813 0.105359 0.480459 0.292896 0.292922C0.480432 0.105386 0.734787 2.99257e-05 1 2.99489e-05C1.26522 2.99721e-05 1.51957 0.105386 1.70711 0.292922C1.89465 0.480459 2 0.734814 2 1.00003L3.10565e-06 1.00003ZM12.707 3.29303L17.707 8.29303L16.293 9.70703L11.293 4.70703L12.707 3.29303ZM17.707 9.70703L12.707 14.707L11.293 13.293L16.293 8.29303L17.707 9.70703ZM17 10L7 10L7 8.00003L17 8.00003L17 10ZM2.93081e-06 3.00003L3.10565e-06 1.00003L2 1.00003L2 3.00003L2.93081e-06 3.00003ZM7 10C5.14349 10 3.36301 9.26253 2.05026 7.94978C0.737501 6.63702 2.76851e-06 4.85655 2.93081e-06 3.00003L2 3.00003C2 4.32611 2.52679 5.59788 3.46447 6.53556C4.40215 7.47325 5.67392 8.00003 7 8.00003L7 10Z" fill="black"/>
</svg>
