<svg xmlns="http://www.w3.org/2000/svg" width="58" height="62" fill="none"><path fill="#282828" d="m29.01.76-4.907 9.128c-.562.99-1.554.896-2.566.336l-3.557-1.83 2.64 14c.562 2.558-1.236 2.558-2.116 1.456l-6.199-6.906-.992 3.51c-.112.466-.618.951-1.386.84L2.1 19.65l2.06 7.467c.449 1.661.786 2.352-.45 2.781L.92 31.205l13.502 10.92c.543.41.805 1.157.599 1.83l-1.18 3.863c4.644-.54 8.82-1.344 13.464-1.829.412-.037 1.086.616 1.086 1.101l-.599 14.15h2.247l-.356-14.112c0-.486.618-1.176 1.03-1.139 4.645.504 8.82 1.307 13.465 1.83l-1.199-3.883c-.206-.672.075-1.4.6-1.83l13.5-10.92-2.79-1.306c-1.235-.448-.898-1.12-.449-2.782l2.06-7.466-7.827 1.642c-.768.112-1.274-.373-1.386-.84l-.993-3.509-6.198 6.907c-.88 1.101-2.66 1.101-2.116-1.456l2.64-14-3.558 1.83c-.992.56-2.003.634-2.565-.337L29.009.76z"/></svg>